<svg width="22px" height="22px" viewBox="0 0 32 32" fill="none" xmlns="http://www.w3.org/2000/svg">
    <path d="M3.77832 2.50001L3.73633 2.79395C3.62933 3.54145 3.04195 4.12934 2.29395 4.23634L2 4.27832V4.72266L2.29395 4.76465C3.04145 4.87165 3.62933 5.45806 3.73633 6.20605L3.77832 6.5H4.22265L4.26465 6.20605C4.37165 5.45855 4.95805 4.87067 5.70605 4.76367L6 4.72168V4.27832L5.70605 4.23633C4.95855 4.12933 4.37067 3.54195 4.26367 2.79395L4.22167 2.5L3.77832 2.50001ZM10.5 3.00001L8.5 5.50001C8.5 5.50001 12.5029 5.49988 12.5029 7.98438C12.5154 9.06388 12.5 12.5 12.5 12.5L13.5 13.5C13.5 13.5 14.4912 8.5 14.4912 7C14.4912 3.5 10.5 3.00001 10.5 3.00001ZM27 3.00001C24 3.00001 22.5 4.5 22.5 6.5V7.50879L23.5 7.5C23.486 7.044 24.249 5.50001 28.5 5.50001L27 3.00001ZM19.2773 3.50001L19.2354 3.79395C19.1284 4.54145 18.5419 5.12933 17.7939 5.23634L17.5 5.27833V5.72267L17.7939 5.76466C18.5414 5.87166 19.1293 6.45807 19.2363 7.20607L19.2783 7.50001H19.7227L19.7647 7.20607C19.8717 6.45857 20.4581 5.87069 21.2061 5.76368L21.5 5.72169V5.27833L21.2061 5.23634C20.4586 5.12933 19.8707 4.54195 19.7637 3.79395L19.7217 3.50001H19.2773ZM26 6.5L25 7C25.014 7.456 24.8765 8.5 22 8.5C19.1235 8.5 18 10.5 18 12V13.5L19 12.5C19 11.5 20 11.0088 22 11.0088C24.818 11.0088 26 8.991 26 8V6.5ZM6.27735 8L6.23535 8.29395C6.12835 9.04145 5.54194 9.62933 4.79394 9.73633L4.5 9.77833V10.2227L4.79394 10.2646C5.54144 10.3716 6.12933 10.9581 6.23633 11.7061L6.27833 12H6.72266L6.76466 11.7061C6.87165 10.9586 7.45806 10.3707 8.20606 10.2637L8.5 10.2217V9.77832L8.20606 9.73633C7.45856 9.62933 6.87068 9.04195 6.76368 8.29394L6.72168 8L6.27735 8ZM26.2773 11.5L26.2354 11.794C26.1284 12.5415 25.5419 13.1293 24.7939 13.2363L24.5 13.2783V13.7227L24.7939 13.7646C25.5414 13.8716 26.1293 14.4581 26.2363 15.2061L26.2783 15.5H26.7227L26.7647 15.2061C26.8717 14.4586 27.4581 13.8707 28.2061 13.7637L28.5 13.7217V13.2783L28.2061 13.2363C27.4586 13.1293 26.8707 12.5419 26.7637 11.7939L26.7217 11.5L26.2773 11.5ZM9.52149 12L4 27L5 28L20 22.4785L9.52149 12ZM21.5 12L20.5 12.5C20.5 13.991 20 14.5 14.5 14.5L16.5 16.5088C20.788 16.5088 21.5 14.491 21.5 13.5V12ZM26 17.5088C24.5 17.5088 18.5 18.5 18.5 18.5L19.5 19.5C19.5 19.5 23.9361 19.4846 25.0156 19.4971C27.5001 19.4971 27.5 23.5 27.5 23.5L30 21.5C30 21.5 29.5 17.5088 26 17.5088ZM22.167 22.5L22.0098 23.6035C21.9058 24.332 21.3325 24.9048 20.6035 25.0088L19.5 25.166V25.833L20.6035 25.9902C21.332 26.0942 21.9048 26.6675 22.0088 27.3965L22.166 28.5H22.833L22.9902 27.3965C23.0942 26.668 23.6675 26.0952 24.3965 25.9912L25.5 25.834V25.166L24.3965 25.0088C23.668 24.9048 23.0952 24.3325 22.9912 23.6035L22.834 22.5L22.167 22.5Z" fill="#75777D"/>
</svg>